<svg xmlns="http://www.w3.org/2000/svg" width="170" height="170" viewBox="0 0 170 170" fill="none"><path d="M127.143 96.1656C133.402 72.8293 119.556 48.8468 96.2167 42.5991C72.8773 36.3515 48.883 50.2047 42.6239 73.541C36.3648 96.8773 50.2111 120.86 73.5505 127.107C96.8899 133.355 120.884 119.502 127.143 96.1656Z" fill="#39E284"></path><path d="M101.397 80.9814C99.7698 79.5935 97.9319 78.5615 95.935 77.9136C94.0717 77.3095 92.0957 76.9662 90.0621 76.8935C88.2756 76.8297 86.5063 76.8307 84.8006 76.8965C83.788 76.9363 82.7721 76.9506 81.7813 76.9387C80.9871 76.9293 80.2553 76.8484 79.6065 76.6988C79.1635 76.5966 78.7994 76.4401 78.4921 76.2201C78.3621 76.127 78.2594 75.9064 78.1958 75.738C78.1529 75.6244 78.1126 75.5167 78.377 75.1171C78.5249 74.8937 79.1887 74.0961 81.5234 73.2164C82.6729 72.7833 84.023 72.4522 85.536 72.2322C87.0578 72.011 88.6031 71.9451 90.1286 72.0365C92.2254 72.1623 93.972 70.4476 93.8846 68.3495L93.6033 61.6119C93.5305 59.8677 92.198 58.4368 90.4632 58.2396C88.2036 57.9827 85.908 57.9982 83.6358 58.2837C83.5551 56.5827 83.317 54.158 82.6216 53.3017C81.5081 51.9305 76.3325 53.7804 74.2074 54.4812C72.5534 55.0269 73.9042 59.068 74.5838 60.8324C72.417 61.7692 70.5596 62.847 69.0465 64.0485C67.1017 65.5939 65.6033 67.3126 64.5933 69.1571C63.5336 71.0924 62.976 73.1537 62.9363 75.2822C62.8979 77.2849 63.2471 79.2796 63.9738 81.2102C64.952 83.8088 66.3432 85.8824 68.1087 87.3736C69.7632 88.7709 71.5991 89.8002 73.5642 90.4323C75.4049 91.0249 77.3213 91.3565 79.2597 91.4174C80.9506 91.4715 82.551 91.4629 84.0161 91.3921L87.3997 91.3003C88.2436 91.2774 89.0282 91.3345 89.7318 91.47C90.2228 91.5645 90.6256 91.715 90.9301 91.9172C90.9753 91.9474 91.0581 92.0625 91.1431 92.2882C91.4294 93.0489 91.3093 93.3902 90.9501 93.8267C90.1355 94.8176 88.8715 95.6404 87.1933 96.2728C85.7322 96.8232 84.1476 97.1545 82.4836 97.258C80.7085 97.3683 79.0558 97.3133 77.5708 97.0942C75.3468 96.7663 73.3823 98.5642 73.513 100.808L73.9261 107.904C74.0226 109.564 75.2599 110.933 76.9016 111.196C79.2481 111.573 81.7704 111.616 84.399 111.323C84.4923 111.312 84.5863 111.3 84.6801 111.289C84.7706 112.969 85.0393 115.837 85.8293 116.77C86.9708 118.118 92.1072 116.161 94.2171 115.416C95.9253 114.814 94.3051 110.497 93.6264 108.875C95.7107 108.023 97.6088 106.997 99.2796 105.818C101.306 104.387 102.945 102.708 104.151 100.828C105.399 98.8857 106.178 96.7403 106.467 94.4521C106.763 92.1132 106.423 89.6242 105.455 87.0537C104.495 84.5038 103.13 82.4611 101.397 80.9814Z" fill="#EAF2FC"></path></svg>