<svg xmlns="http://www.w3.org/2000/svg" width="142" height="229" viewBox="0 0 142 229" fill="none"><path d="M135.82 126.084C132.129 119.398 127.286 113.635 121.427 108.957C115.96 104.593 109.788 100.959 103.084 98.1563C97.1934 95.6941 91.2789 93.4704 85.4956 91.5437C82.061 90.4021 78.6483 89.171 75.352 87.8847C72.709 86.8536 70.3651 85.6626 68.3855 84.3456C67.0334 83.446 66.0137 82.4655 65.2637 81.3428C64.9467 80.8687 64.8802 80.0024 64.8802 79.359C64.8802 78.9252 64.8802 78.5155 66.2667 77.5117C67.0421 76.951 70.2642 75.1212 79.174 75.1212C83.5607 75.1212 88.489 75.7141 93.8223 76.8833C99.1868 78.0594 104.433 79.7842 109.417 82.0103C116.267 85.07 124.261 81.5388 126.608 74.4165L134.145 51.5475C136.096 45.6275 133.444 39.169 127.894 36.3264C120.449 32.5133 112.515 29.6141 104.309 27.7082C103.322 27.4795 102.323 27.265 101.312 27.0639C103.215 21.2755 105.679 12.4031 104.389 8.53357C102.393 2.54918 82.7682 2.21671 74.7851 1.88424C67.9936 1.60141 67.943 19.7885 68.0791 25.225C61.0468 25.7785 54.66 26.9663 49.0121 28.7803C40.5673 31.4962 33.3972 35.3536 27.7015 40.2457C21.7252 45.3788 17.2684 51.5653 14.4572 58.6279C11.8088 65.2725 10.4661 72.3768 10.4661 79.7435C10.4661 89.6575 12.5064 98.338 16.5303 105.544C20.3012 112.296 25.1417 118.046 30.9142 122.632C36.3195 126.929 42.308 130.45 48.7085 133.093C54.292 135.402 59.65 137.388 64.6364 138.996L76.0599 142.948C78.9085 143.933 81.459 145.112 83.6399 146.451C85.1615 147.385 86.3194 148.395 87.0821 149.454C87.1955 149.611 87.3278 150.1 87.3278 150.961C87.3278 153.864 86.497 154.853 84.7472 155.86C80.7776 158.146 75.5181 159.305 69.114 159.305C63.5389 159.305 57.8261 158.418 52.1346 156.669C46.0634 154.804 39.4014 154.072 34.7149 151.471C27.6952 147.575 20.0747 149.578 17.6882 157.241L10.14 181.475C8.375 187.142 10.7875 193.274 15.9419 196.221C22.4666 199.951 29.7842 202.979 37.7303 205.242C36.0679 210.977 34.3262 218.595 35.5645 222.067C37.6839 228.009 57.3117 227.934 65.2997 228.101C70.6406 228.213 71.582 217.004 71.6197 209.563C80.8118 209.547 89.5143 208.491 97.4937 206.418C106.065 204.187 113.656 200.639 120.053 195.874C126.665 190.953 131.968 184.765 135.814 177.483C139.747 170.04 141.741 161.293 141.741 151.486C141.742 141.755 139.751 133.21 135.82 126.084Z" fill="#2CB569"></path><path d="M126.254 122.782C122.562 116.095 117.72 110.333 111.86 105.656C106.393 101.291 100.222 97.6569 93.5171 94.8543C87.6269 92.3922 81.7124 90.1684 75.9294 88.2418C72.4948 87.1001 69.0821 85.8691 65.7856 84.5828C63.1428 83.5516 60.7987 82.3606 58.819 81.0434C57.467 80.1441 56.4473 79.1633 55.6975 78.0407C55.3805 77.5666 55.314 76.7003 55.314 76.0569C55.314 75.623 55.314 75.2133 56.7005 74.2096C57.4759 73.6488 60.6979 71.8191 69.6077 71.8191C73.9945 71.8191 78.9228 72.4119 84.2561 73.5812C89.6206 74.7572 94.8675 76.482 99.8509 78.7082C106.7 81.7678 114.694 78.2366 117.042 71.1144L124.579 48.2453C126.53 42.3253 123.877 35.8668 118.327 33.0242C111.098 29.3217 103.408 26.4838 95.455 24.5772C97.325 18.7921 99.5803 10.3891 98.3341 6.65259C96.3383 0.668192 76.7134 0.335727 68.7303 0.00326061C62.5164 -0.255455 61.9455 14.9488 61.9975 21.7012C53.5775 22.1036 46.0133 23.3686 39.4459 25.4779C31.0011 28.1939 23.831 32.0512 18.1353 36.9433C12.159 42.0764 7.7022 48.2629 4.89101 55.3255C2.24261 61.9701 0.899921 69.0744 0.899921 76.4411C0.899921 86.3551 2.94021 95.0356 6.9641 102.241C10.735 108.993 15.5755 114.744 21.348 119.33C26.7533 123.627 32.7418 127.147 39.1423 129.791C44.7258 132.1 50.0838 134.086 55.0702 135.693L66.4937 139.646C69.3423 140.631 71.8928 141.809 74.0737 143.148C75.5953 144.082 76.7532 145.093 77.5159 146.151C77.6293 146.309 77.7616 146.798 77.7616 147.659C77.7616 150.561 76.9308 151.55 75.181 152.557C71.2114 154.843 65.9519 156.003 59.5478 156.003C53.9727 156.003 48.2599 155.116 42.5684 153.367C36.4972 151.502 31.0428 149.237 26.356 146.636H26.3557C19.3363 142.741 10.5082 146.276 8.12174 153.938L0.573614 178.173C-1.19143 183.84 1.22131 189.971 6.37544 192.918C13.7425 197.131 22.1189 200.449 31.2716 202.779C31.5963 202.862 31.9259 202.94 32.2538 203.02C30.4429 208.748 27.7312 218.672 29.1974 222.783C31.3169 228.725 50.9446 228.65 58.9329 228.817C65.4002 228.952 65.4171 212.489 65.1889 206.214C73.2273 205.99 80.861 204.952 87.9277 203.116C96.4988 200.885 104.09 197.336 110.487 192.572C117.099 187.651 122.403 181.462 126.248 174.18C130.181 166.737 132.175 157.991 132.175 148.184C132.176 138.453 130.184 129.908 126.254 122.782Z" fill="#39E284"></path></svg>