<svg xmlns="http://www.w3.org/2000/svg" width="143" height="143" viewBox="0 0 143 143" fill="none"><path d="M97.0156 107.059C116.656 92.9873 121.164 65.6639 107.083 46.0301C93.0019 26.3962 65.665 21.8868 46.0242 35.958C26.3834 50.0292 21.8762 77.3526 35.9571 96.9864C50.038 116.62 77.3748 121.13 97.0156 107.059Z" fill="#39E284"></path><path d="M86.7415 78.9888C86.3642 76.8839 85.5979 74.9203 84.465 73.1529C83.4076 71.504 82.0978 69.9852 80.5717 68.6391C79.2311 67.4566 77.8625 66.3351 76.5021 65.3042C75.6941 64.6926 74.8996 64.0593 74.1412 63.4216C73.5331 62.9107 73.0187 62.3839 72.612 61.8568C72.3344 61.4967 72.1521 61.1449 72.0541 60.7798C72.0127 60.6254 72.0732 60.3898 72.1308 60.2192C72.1697 60.1041 72.2069 59.9953 72.6647 59.854C72.9208 59.7752 73.9398 59.5796 76.3028 60.3804C77.4662 60.7747 78.7199 61.375 80.0292 62.1646C81.346 62.9589 82.5825 63.8881 83.7039 64.9263C85.2451 66.3536 87.683 66.1358 88.9462 64.4583L93.0023 59.0711C94.0524 57.6764 93.9298 55.725 92.7137 54.4722C91.1297 52.8404 89.3452 51.3963 87.4075 50.1758C88.424 48.8096 89.7779 46.7841 89.7834 45.681C89.7923 43.9146 84.6177 42.0619 82.5302 41.2558C80.9055 40.6286 79.3866 44.6095 78.7928 46.4047C76.5235 45.7545 74.4039 45.4096 72.472 45.3788C69.9882 45.3399 67.7397 45.7183 65.7889 46.5036C63.7421 47.3276 62.0036 48.5675 60.6229 50.1879C59.3229 51.7118 58.3276 53.4754 57.6649 55.429C56.7729 58.0583 56.5331 60.5438 56.9522 62.8165C57.345 64.9463 58.1114 66.9064 59.2298 68.6416C60.2769 70.2673 61.5482 71.7391 63.0081 73.0157C64.2811 74.13 65.5237 75.1385 66.7013 76.0131L69.3754 78.0883C70.0424 78.6059 70.6127 79.1476 71.0707 79.6987C71.3903 80.0832 71.6063 80.455 71.7134 80.8044C71.7292 80.8564 71.7203 80.998 71.6428 81.2264C71.3816 81.9961 71.0723 82.1838 70.5177 82.2934C69.2594 82.5428 67.7604 82.3772 66.0619 81.8016C64.5831 81.3004 63.148 80.5514 61.7959 79.576C60.3536 78.5353 59.1108 77.4445 58.1017 76.3332C56.5903 74.6691 53.9312 74.8129 52.6092 76.6303L48.4273 82.3786C47.4494 83.7227 47.5377 85.5659 48.6397 86.8109C50.2148 88.5905 52.1377 90.2234 54.3556 91.6644C54.4343 91.7155 54.5146 91.7658 54.5945 91.8164C53.5988 93.1726 51.987 95.5608 52.0061 96.7829C52.0336 98.5491 57.2459 100.294 59.3495 101.057C61.0524 101.674 62.5379 97.3091 63.0419 95.6247C65.1938 96.2878 67.3118 96.6989 69.3512 96.8474C71.825 97.0262 74.1574 96.7677 76.2827 96.0795C78.4789 95.369 80.4422 94.2046 82.1172 92.619C83.8298 90.9988 85.1453 88.8586 86.0275 86.2574C86.9024 83.6771 87.1431 81.2322 86.7415 78.9888Z" fill="#EAF2FC"></path></svg>